<svg width="702" height="702" viewBox="0 0 702 702" fill="none" xmlns="http://www.w3.org/2000/svg">
<path d="M351 351L351 1C443.826 1 532.85 37.8749 598.487 103.513L351 351Z" fill="#278C27" stroke="white"/>
<path d="M351 351L598.487 103.513C664.125 169.15 701 258.174 701 351H351Z" fill="#278C27" stroke="white"/>
<path d="M351 351L701 351C701 443.826 664.125 532.85 598.487 598.487L351 351Z" fill="#278C27" stroke="white"/>
<path d="M351 351L598.487 598.487C532.85 664.125 443.826 701 351 701L351 351Z" fill="#278C27" stroke="white"/>
<path d="M351 351V701C258.174 701 169.15 664.125 103.513 598.487L351 351Z" fill="#278C27" stroke="white"/>
<path d="M351 351L103.513 598.487C37.8749 532.85 1 443.826 1 351H351Z" fill="#278C27" stroke="white"/>
<path d="M351 351H1C1 258.174 37.8749 169.15 103.513 103.513L351 351Z" fill="#278C27" stroke="white"/>
<path d="M351 351L103.513 103.513C169.15 37.8749 258.174 1 351 1V351Z" fill="#278C27" stroke="white"/>
</svg>
